<svg width="119" height="40" viewBox="0 0 119 40" fill="none" xmlns="http://www.w3.org/2000/svg">
<path d="M1 8C1 3.85786 4.35786 0.5 8.5 0.5H118V39.5H8.5C4.35786 39.5 1 36.1421 1 32V8Z" fill="white"/>
<path d="M1 8C1 3.85786 4.35786 0.5 8.5 0.5H118V39.5H8.5C4.35786 39.5 1 36.1421 1 32V8Z" stroke="#D0D5DD"/>
<path d="M32.3334 20.0001H20.6667M20.6667 20.0001L26.5001 25.8334M20.6667 20.0001L26.5001 14.1667" stroke="#747D94" stroke-width="1.67" stroke-linecap="round" stroke-linejoin="round"/>
<path d="M44.99 24L47.748 13.654H50.135L52.865 24H51.304L48.931 14.613H48.945L46.558 24H44.99ZM46.586 21.375V20.115H51.29V21.375H46.586ZM59.6454 24V20.57C59.6454 20.3693 59.6454 20.199 59.6454 20.059C59.6454 19.919 59.6454 19.7883 59.6454 19.667C59.6454 19.303 59.5894 18.9833 59.4774 18.708C59.3654 18.428 59.181 18.211 58.9244 18.057C58.6677 17.8983 58.3247 17.819 57.8954 17.819C57.5174 17.819 57.1744 17.9123 56.8664 18.099C56.563 18.2857 56.3204 18.54 56.1384 18.862C55.961 19.1793 55.8724 19.541 55.8724 19.947L55.2214 19.625C55.2214 19.023 55.3637 18.484 55.6484 18.008C55.933 17.5273 56.3134 17.147 56.7894 16.867C57.27 16.587 57.795 16.447 58.3644 16.447C58.9524 16.447 59.454 16.5613 59.8694 16.79C60.2894 17.014 60.609 17.336 60.8284 17.756C61.0524 18.1713 61.1644 18.6683 61.1644 19.247C61.1644 19.4617 61.1644 19.6997 61.1644 19.961C61.1644 20.2223 61.1644 20.4743 61.1644 20.717V24H59.6454ZM54.3534 24V16.566H55.8724V24H54.3534ZM66.0626 24.126C65.8153 24.126 65.568 24.1003 65.3206 24.049C65.078 23.9977 64.854 23.9043 64.6486 23.769C64.448 23.629 64.287 23.4307 64.1656 23.174C64.0443 22.9173 63.9836 22.5813 63.9836 22.166C63.9836 22.068 63.9836 21.9653 63.9836 21.858C63.9836 21.7507 63.9836 21.641 63.9836 21.529V17.826H62.1986V16.566H63.1366C63.3373 16.566 63.4936 16.559 63.6056 16.545C63.7223 16.5263 63.8063 16.4867 63.8576 16.426C63.9136 16.3607 63.9486 16.258 63.9626 16.118C63.9766 15.978 63.9836 15.7867 63.9836 15.544V14.109H65.5026V16.566H67.7776V17.826H65.5026V21.123C65.5026 21.2163 65.5026 21.3097 65.5026 21.403C65.5026 21.4963 65.5026 21.5827 65.5026 21.662C65.5026 22.0353 65.547 22.3293 65.6356 22.544C65.729 22.7587 65.939 22.866 66.2656 22.866C66.4056 22.866 66.5386 22.8543 66.6646 22.831C66.7906 22.8077 66.8863 22.782 66.9516 22.754V23.993C66.8676 24.0257 66.7486 24.056 66.5946 24.084C66.4406 24.112 66.2633 24.126 66.0626 24.126ZM69.5486 20.815V19.632H75.0226L74.8126 19.982C74.8126 19.954 74.8126 19.926 74.8126 19.898C74.8126 19.8653 74.8126 19.8373 74.8126 19.814C74.8126 19.436 74.731 19.0883 74.5676 18.771C74.4043 18.449 74.1593 18.1923 73.8326 18.001C73.5106 17.805 73.107 17.707 72.6216 17.707C72.1363 17.707 71.7093 17.812 71.3406 18.022C70.9766 18.2273 70.692 18.5213 70.4866 18.904C70.286 19.282 70.1856 19.737 70.1856 20.269C70.1856 20.8103 70.2836 21.277 70.4796 21.669C70.6756 22.0563 70.958 22.355 71.3266 22.565C71.6953 22.775 72.1363 22.88 72.6496 22.88C73.009 22.88 73.3193 22.845 73.5806 22.775C73.8466 22.7003 74.0636 22.6023 74.2316 22.481C74.4043 22.3597 74.535 22.229 74.6236 22.089C74.7123 21.9443 74.7636 21.802 74.7776 21.662H76.2896C76.2616 21.9653 76.1613 22.2663 75.9886 22.565C75.8206 22.859 75.5803 23.1273 75.2676 23.37C74.9596 23.608 74.5816 23.7993 74.1336 23.944C73.6903 24.084 73.1793 24.154 72.6006 24.154C71.826 24.154 71.147 23.9907 70.5636 23.664C69.9803 23.3373 69.5253 22.8847 69.1986 22.306C68.872 21.7227 68.7086 21.0553 68.7086 20.304C68.7086 19.5387 68.8743 18.8667 69.2056 18.288C69.537 17.7093 69.9966 17.259 70.5846 16.937C71.1726 16.6103 71.847 16.447 72.6076 16.447C73.3823 16.447 74.052 16.6103 74.6166 16.937C75.186 17.2637 75.6246 17.714 75.9326 18.288C76.2406 18.862 76.3946 19.5223 76.3946 20.269C76.3946 20.3577 76.3923 20.4603 76.3876 20.577C76.383 20.6937 76.376 20.773 76.3666 20.815H69.5486ZM78.0878 24V16.566H79.6068V18.939L79.2008 18.757C79.2334 18.4537 79.3104 18.1643 79.4318 17.889C79.5531 17.6137 79.7141 17.3687 79.9148 17.154C80.1201 16.9347 80.3721 16.762 80.6708 16.636C80.9694 16.51 81.3148 16.447 81.7068 16.447C82.0054 16.447 82.2458 16.4703 82.4278 16.517C82.6144 16.5637 82.7288 16.601 82.7708 16.629L82.4488 18.057C82.4021 18.0243 82.3064 17.9823 82.1618 17.931C82.0218 17.8797 81.8258 17.854 81.5738 17.854C81.1911 17.854 80.8738 17.9217 80.6218 18.057C80.3698 18.1923 80.1691 18.372 80.0198 18.596C79.8704 18.82 79.7631 19.065 79.6978 19.331C79.6371 19.5923 79.6068 19.856 79.6068 20.122V24H78.0878ZM84.015 24V16.566H85.513V24H84.015ZM84.771 15.026C84.5097 15.026 84.2833 14.956 84.092 14.816C83.9053 14.6713 83.812 14.473 83.812 14.221C83.812 13.9737 83.9053 13.78 84.092 13.64C84.2833 13.4953 84.5097 13.423 84.771 13.423C85.0277 13.423 85.2493 13.4953 85.436 13.64C85.6273 13.78 85.723 13.9737 85.723 14.221C85.723 14.473 85.6273 14.6713 85.436 14.816C85.2493 14.956 85.0277 15.026 84.771 15.026ZM91.126 24.14C90.3607 24.14 89.684 23.9743 89.096 23.643C88.5127 23.3117 88.0553 22.8567 87.724 22.278C87.3973 21.6947 87.234 21.0273 87.234 20.276C87.234 19.5293 87.3973 18.869 87.724 18.295C88.0553 17.7163 88.5127 17.266 89.096 16.944C89.684 16.6173 90.3607 16.454 91.126 16.454C91.8913 16.454 92.5657 16.6173 93.149 16.944C93.737 17.266 94.1943 17.7163 94.521 18.295C94.8523 18.869 95.018 19.5293 95.018 20.276C95.018 21.0273 94.8523 21.6947 94.521 22.278C94.1943 22.8567 93.737 23.3117 93.149 23.643C92.5657 23.9743 91.8913 24.14 91.126 24.14ZM91.126 22.838C91.5927 22.838 92.0033 22.733 92.358 22.523C92.7127 22.313 92.9903 22.0167 93.191 21.634C93.3917 21.2467 93.492 20.794 93.492 20.276C93.492 19.7627 93.3917 19.317 93.191 18.939C92.9903 18.561 92.7127 18.2693 92.358 18.064C92.0033 17.8587 91.5927 17.756 91.126 17.756C90.664 17.756 90.2533 17.8587 89.894 18.064C89.5393 18.2693 89.2617 18.561 89.061 18.939C88.8603 19.317 88.76 19.7627 88.76 20.276C88.76 20.794 88.8603 21.2467 89.061 21.634C89.2617 22.0167 89.5393 22.313 89.894 22.523C90.2533 22.733 90.664 22.838 91.126 22.838ZM96.7088 24V16.566H98.2278V18.939L97.8218 18.757C97.8545 18.4537 97.9315 18.1643 98.0528 17.889C98.1742 17.6137 98.3352 17.3687 98.5358 17.154C98.7412 16.9347 98.9932 16.762 99.2918 16.636C99.5905 16.51 99.9358 16.447 100.328 16.447C100.627 16.447 100.867 16.4703 101.049 16.517C101.236 16.5637 101.35 16.601 101.392 16.629L101.07 18.057C101.023 18.0243 100.928 17.9823 100.783 17.931C100.643 17.8797 100.447 17.854 100.195 17.854C99.8122 17.854 99.4948 17.9217 99.2428 18.057C98.9908 18.1923 98.7902 18.372 98.6408 18.596C98.4915 18.82 98.3842 19.065 98.3188 19.331C98.2582 19.5923 98.2278 19.856 98.2278 20.122V24H96.7088Z" fill="#213770"/>
</svg>
