<svg width="117" height="40" viewBox="0 0 117 40" fill="none" xmlns="http://www.w3.org/2000/svg">
<path d="M1 0.5H108.5C112.642 0.5 116 3.85786 116 8V32C116 36.1421 112.642 39.5 108.5 39.5H1V0.5Z" fill="white"/>
<path d="M1 0.5H108.5C112.642 0.5 116 3.85786 116 8V32C116 36.1421 112.642 39.5 108.5 39.5H1V0.5Z" stroke="#D0D5DD"/>
<path d="M18.964 24H17.445V13.675H20.553C21.3463 13.675 22.0113 13.8243 22.548 14.123C23.0893 14.4217 23.4953 14.8253 23.766 15.334C24.0413 15.838 24.179 16.4027 24.179 17.028C24.179 17.6533 24.039 18.2297 23.759 18.757C23.4837 19.2797 23.0753 19.6997 22.534 20.017C21.9927 20.3343 21.3323 20.493 20.553 20.493H18.964V24ZM18.964 19.975L18.278 19.233H20.378C20.8727 19.233 21.288 19.1443 21.624 18.967C21.9647 18.785 22.2213 18.5283 22.394 18.197C22.5667 17.8657 22.653 17.476 22.653 17.028C22.653 16.58 22.569 16.1997 22.401 15.887C22.233 15.5743 21.981 15.3387 21.645 15.18C21.309 15.0167 20.8867 14.935 20.378 14.935H18.278L18.964 14.137V19.975ZM25.7518 24V16.566H27.2708V18.939L26.8648 18.757C26.8975 18.4537 26.9745 18.1643 27.0958 17.889C27.2171 17.6137 27.3781 17.3687 27.5788 17.154C27.7841 16.9347 28.0361 16.762 28.3348 16.636C28.6335 16.51 28.9788 16.447 29.3708 16.447C29.6695 16.447 29.9098 16.4703 30.0918 16.517C30.2785 16.5637 30.3928 16.601 30.4348 16.629L30.1128 18.057C30.0661 18.0243 29.9705 17.9823 29.8258 17.931C29.6858 17.8797 29.4898 17.854 29.2378 17.854C28.8551 17.854 28.5378 17.9217 28.2858 18.057C28.0338 18.1923 27.8331 18.372 27.6838 18.596C27.5345 18.82 27.4271 19.065 27.3618 19.331C27.3011 19.5923 27.2708 19.856 27.2708 20.122V24H25.7518ZM35.1123 24.14C34.347 24.14 33.6703 23.9743 33.0823 23.643C32.499 23.3117 32.0417 22.8567 31.7103 22.278C31.3837 21.6947 31.2203 21.0273 31.2203 20.276C31.2203 19.5293 31.3837 18.869 31.7103 18.295C32.0417 17.7163 32.499 17.266 33.0823 16.944C33.6703 16.6173 34.347 16.454 35.1123 16.454C35.8777 16.454 36.552 16.6173 37.1353 16.944C37.7233 17.266 38.1807 17.7163 38.5073 18.295C38.8387 18.869 39.0043 19.5293 39.0043 20.276C39.0043 21.0273 38.8387 21.6947 38.5073 22.278C38.1807 22.8567 37.7233 23.3117 37.1353 23.643C36.552 23.9743 35.8777 24.14 35.1123 24.14ZM35.1123 22.838C35.579 22.838 35.9897 22.733 36.3443 22.523C36.699 22.313 36.9767 22.0167 37.1773 21.634C37.378 21.2467 37.4783 20.794 37.4783 20.276C37.4783 19.7627 37.378 19.317 37.1773 18.939C36.9767 18.561 36.699 18.2693 36.3443 18.064C35.9897 17.8587 35.579 17.756 35.1123 17.756C34.6503 17.756 34.2397 17.8587 33.8803 18.064C33.5257 18.2693 33.248 18.561 33.0473 18.939C32.8467 19.317 32.7463 19.7627 32.7463 20.276C32.7463 20.794 32.8467 21.2467 33.0473 21.634C33.248 22.0167 33.5257 22.313 33.8803 22.523C34.2397 22.733 34.6503 22.838 35.1123 22.838ZM34.1813 15.446L35.8543 13.675H37.1423L35.3013 15.446H34.1813ZM42.597 19.996L42.583 20.703L39.622 16.566H41.281L43.626 19.891L42.716 19.877L45.005 16.566H46.636L43.78 20.486L43.794 19.933L46.678 24H45.019L42.66 20.703L43.675 20.556L41.141 24H39.517L42.597 19.996ZM48.0443 24V16.566H49.5423V24H48.0443ZM48.8003 15.026C48.539 15.026 48.3126 14.956 48.1213 14.816C47.9346 14.6713 47.8413 14.473 47.8413 14.221C47.8413 13.9737 47.9346 13.78 48.1213 13.64C48.3126 13.4953 48.539 13.423 48.8003 13.423C49.057 13.423 49.2786 13.4953 49.4653 13.64C49.6566 13.78 49.7523 13.9737 49.7523 14.221C49.7523 14.473 49.6566 14.6713 49.4653 14.816C49.2786 14.956 49.057 15.026 48.8003 15.026ZM56.1633 24V20.85C56.1633 20.5653 56.1633 20.3203 56.1633 20.115C56.1633 19.905 56.1633 19.7277 56.1633 19.583C56.1633 19.401 56.1493 19.2073 56.1213 19.002C56.098 18.7967 56.042 18.6053 55.9533 18.428C55.8693 18.246 55.7363 18.099 55.5543 17.987C55.3723 17.875 55.1226 17.819 54.8053 17.819C54.488 17.819 54.2196 17.882 54.0003 18.008C53.781 18.134 53.6036 18.302 53.4683 18.512C53.333 18.7173 53.235 18.9483 53.1743 19.205C53.1136 19.457 53.0833 19.7113 53.0833 19.968L52.4393 19.618C52.4393 19.0347 52.5536 18.505 52.7823 18.029C53.0156 17.5483 53.3423 17.1657 53.7623 16.881C54.187 16.5917 54.6863 16.447 55.2603 16.447C55.8436 16.447 56.3103 16.5683 56.6603 16.811C57.015 17.049 57.2716 17.3757 57.4303 17.791C57.589 18.2017 57.6683 18.6683 57.6683 19.191C57.6683 19.3823 57.6683 19.632 57.6683 19.94C57.6683 20.248 57.6683 20.605 57.6683 21.011V24H56.1633ZM51.5643 24V16.566H53.0833V24H51.5643ZM60.7413 24V20.857C60.7413 20.549 60.7413 20.2923 60.7413 20.087C60.7413 19.877 60.7413 19.702 60.7413 19.562C60.7413 19.3707 60.7296 19.1747 60.7063 18.974C60.683 18.7687 60.627 18.5797 60.5383 18.407C60.4496 18.2343 60.312 18.0943 60.1253 17.987C59.9433 17.875 59.689 17.819 59.3623 17.819C59.0403 17.819 58.7696 17.882 58.5503 18.008C58.3356 18.1293 58.163 18.2927 58.0323 18.498C57.9016 18.6987 57.8083 18.9203 57.7523 19.163C57.6963 19.4057 57.6683 19.646 57.6683 19.884L57.0243 19.548C57.0243 18.988 57.1363 18.4723 57.3603 18.001C57.589 17.5297 57.911 17.154 58.3263 16.874C58.7463 16.5893 59.2433 16.447 59.8173 16.447C60.3773 16.447 60.837 16.559 61.1963 16.783C61.5556 17.007 61.8216 17.3173 61.9943 17.714C62.167 18.1107 62.2533 18.5703 62.2533 19.093C62.2533 19.2937 62.2533 19.5457 62.2533 19.849C62.2533 20.1523 62.2533 20.5047 62.2533 20.906V24H60.7413ZM66.7595 24.147C66.1995 24.147 65.7071 24.0583 65.2825 23.881C64.8625 23.7037 64.5358 23.4493 64.3025 23.118C64.0691 22.7867 63.9525 22.3877 63.9525 21.921C63.9525 21.4217 64.0831 21.0087 64.3445 20.682C64.6105 20.3553 64.9745 20.1033 65.4365 19.926C65.9031 19.744 66.4328 19.625 67.0255 19.569C67.9075 19.4803 68.5281 19.394 68.8875 19.31C69.2515 19.226 69.4335 19.0883 69.4335 18.897C69.4335 18.8923 69.4335 18.8877 69.4335 18.883C69.4335 18.505 69.2725 18.218 68.9505 18.022C68.6285 17.826 68.1688 17.728 67.5715 17.728C66.9415 17.728 66.4538 17.84 66.1085 18.064C65.7678 18.2833 65.5975 18.6333 65.5975 19.114H64.1065C64.1065 18.5447 64.2535 18.0617 64.5475 17.665C64.8461 17.2683 65.2568 16.9673 65.7795 16.762C66.3021 16.552 66.9018 16.447 67.5785 16.447C68.1991 16.447 68.7638 16.5427 69.2725 16.734C69.7858 16.9207 70.1941 17.2007 70.4975 17.574C70.8008 17.9473 70.9525 18.4117 70.9525 18.967C70.9525 19.065 70.9525 19.163 70.9525 19.261C70.9525 19.3543 70.9525 19.45 70.9525 19.548V22.516C70.9525 22.6887 70.9595 22.8567 70.9735 23.02C70.9875 23.1787 71.0131 23.321 71.0505 23.447C71.0925 23.5917 71.1415 23.7107 71.1975 23.804C71.2581 23.8973 71.3071 23.9627 71.3445 24H69.8325C69.8045 23.972 69.7625 23.9137 69.7065 23.825C69.6551 23.7317 69.6085 23.6243 69.5665 23.503C69.5245 23.3863 69.4918 23.2533 69.4685 23.104C69.4498 22.95 69.4405 22.7843 69.4405 22.607L69.7205 22.803C69.5805 23.0737 69.3681 23.3093 69.0835 23.51C68.8035 23.7107 68.4651 23.867 68.0685 23.979C67.6765 24.091 67.2401 24.147 66.7595 24.147ZM67.0745 22.887C67.5085 22.887 67.9028 22.8193 68.2575 22.684C68.6168 22.544 68.9038 22.334 69.1185 22.054C69.3331 21.7693 69.4405 21.4123 69.4405 20.983V19.751L69.7975 20.22C69.4988 20.3367 69.1325 20.4323 68.6985 20.507C68.2691 20.577 67.8258 20.6353 67.3685 20.682C66.7385 20.738 66.2648 20.8477 65.9475 21.011C65.6301 21.1697 65.4715 21.4357 65.4715 21.809C65.4715 22.1683 65.6021 22.439 65.8635 22.621C66.1295 22.7983 66.5331 22.887 67.0745 22.887Z" fill="#213770"/>
<path d="M84.6667 20.0001H96.3334M96.3334 20.0001L90.5001 14.1667M96.3334 20.0001L90.5001 25.8334" stroke="#747D94" stroke-width="1.67" stroke-linecap="round" stroke-linejoin="round"/>
</svg>
